<svg width="0" height="0" class="hidden">
    <symbol fill="none" xmlns="http://www.w3.org/2000/svg" viewBox="0 0 56 56" id="Clip path group">
        <path d="M27.6 54.2C42.29 54.2 54.2 42.29 54.2 27.6C54.2 12.91 42.29 1 27.6 1C12.91 1 1 12.91 1 27.6C1 42.29 12.91 54.2 27.6 54.2Z" stroke="white" stroke-width="1.7" stroke-linecap="round" stroke-linejoin="round"></path>
        <path d="M7.89005 44.874L10.2841 43.764C11.6701 43.1216 13.1794 42.7888 14.7071 42.7888C16.2347 42.7888 17.744 43.1216 19.1301 43.764L23.2371 45.667C24.623 46.3097 26.1323 46.6426 27.6601 46.6426C29.1878 46.6426 30.6971 46.3097 32.0831 45.667L36.1761 43.772C37.5648 43.1265 39.0777 42.7921 40.6091 42.7921C42.1404 42.7921 43.6534 43.1265 45.0421 43.772L47.2201 44.792M3.45105 37.757C3.78478 37.6643 4.1105 37.5449 4.42505 37.4L10.2831 34.675C11.6692 34.0326 13.1787 33.6998 14.7066 33.6998C16.2344 33.6998 17.7439 34.0326 19.1301 34.675L23.2371 36.578C24.623 37.2207 26.1323 37.5537 27.6601 37.5537C29.1878 37.5537 30.6971 37.2207 32.0831 36.578L36.1761 34.683C37.5656 34.039 39.0792 33.7066 40.6107 33.7092C42.1422 33.7118 43.6547 34.0493 45.0421 34.698L50.7761 37.372C51.1731 37.558 51.5891 37.702 52.0171 37.802M1.75305 28.91C2.67605 28.91 3.58705 28.71 4.42505 28.322L10.2831 25.608C11.6692 24.9656 13.1787 24.6328 14.7066 24.6328C16.2344 24.6328 17.7439 24.9656 19.1301 25.608L23.2301 27.512C24.6163 28.155 26.126 28.488 27.6541 28.488C29.1821 28.488 30.6918 28.155 32.0781 27.512L36.1701 25.617C37.5589 24.9713 39.072 24.6367 40.6036 24.6367C42.1351 24.6367 43.6482 24.9713 45.0371 25.617L50.7701 28.294C51.6111 28.6852 52.5275 28.8876 53.4551 28.887" stroke="white" stroke-width="1.7" stroke-miterlimit="10" stroke-linecap="round"></path>
        <path d="M39.015 11.654C39.4928 11.654 39.88 11.2667 39.88 10.789C39.88 10.3113 39.4928 9.92401 39.015 9.92401C38.5373 9.92401 38.15 10.3113 38.15 10.789C38.15 11.2667 38.5373 11.654 39.015 11.654Z" fill="white"></path>
        <path d="M38.932 11.477C39.1146 11.477 39.2898 11.4045 39.4189 11.2753C39.548 11.1462 39.6205 10.9711 39.6205 10.7885C39.6205 10.6059 39.548 10.4308 39.4189 10.3017C39.2898 10.1725 39.1146 10.1 38.932 10.1C38.7494 10.1 38.5743 10.1725 38.4452 10.3017C38.3161 10.4308 38.2435 10.6059 38.2435 10.7885C38.2435 10.9711 38.3161 11.1462 38.4452 11.2753C38.5743 11.4045 38.7494 11.477 38.932 11.477Z" fill="white" stroke="white" stroke-width="1.7" stroke-miterlimit="10" stroke-linejoin="round"></path>
        <path d="M44.522 19.497C45.0919 19.497 45.554 19.035 45.554 18.465C45.554 17.8951 45.0919 17.433 44.522 17.433C43.952 17.433 43.49 17.8951 43.49 18.465C43.49 19.035 43.952 19.497 44.522 19.497Z" fill="white"></path>
        <path d="M44.522 19.153C44.7045 19.153 44.8794 19.0805 45.0085 18.9515C45.1375 18.8225 45.21 18.6475 45.21 18.465C45.21 18.2825 45.1375 18.1075 45.0085 17.9785C44.8794 17.8495 44.7045 17.777 44.522 17.777C44.3395 17.777 44.1645 17.8495 44.0355 17.9785C43.9065 18.1075 43.834 18.2825 43.834 18.465C43.834 18.6475 43.9065 18.8225 44.0355 18.9515C44.1645 19.0805 44.3395 19.153 44.522 19.153Z" fill="white" stroke="white" stroke-width="1.7" stroke-miterlimit="10" stroke-linejoin="round"></path>
        <path d="M33.33 19.33C33.8077 19.33 34.195 18.9427 34.195 18.465C34.195 17.9873 33.8077 17.6 33.33 17.6C32.8522 17.6 32.465 17.9873 32.465 18.465C32.465 18.9427 32.8522 19.33 33.33 19.33Z" fill="white"></path>
        <path d="M33.33 18.94C33.456 18.94 33.5768 18.8899 33.6659 18.8009C33.7549 18.7118 33.805 18.591 33.805 18.465C33.805 18.339 33.7549 18.2182 33.6659 18.1291C33.5768 18.04 33.456 17.99 33.33 17.99C33.204 17.99 33.0832 18.04 32.9941 18.1291C32.905 18.2182 32.855 18.339 32.855 18.465C32.855 18.591 32.905 18.7118 32.9941 18.8009C33.0832 18.8899 33.204 18.94 33.33 18.94Z" fill="white" stroke="white" stroke-width="1.7" stroke-miterlimit="10" stroke-linejoin="round"></path>
        <path d="M33.241 19.497C33.8109 19.497 34.273 19.035 34.273 18.465C34.273 17.8951 33.8109 17.433 33.241 17.433C32.671 17.433 32.209 17.8951 32.209 18.465C32.209 19.035 32.671 19.497 33.241 19.497Z" fill="white"></path>
        <path d="M33.24 19.153C33.4225 19.153 33.5975 19.0805 33.7265 18.9515C33.8555 18.8225 33.928 18.6475 33.928 18.465C33.928 18.2825 33.8555 18.1075 33.7265 17.9785C33.5975 17.8495 33.4225 17.777 33.24 17.777C33.0575 17.777 32.8825 17.8495 32.7535 17.9785C32.6245 18.1075 32.552 18.2825 32.552 18.465C32.552 18.6475 32.6245 18.8225 32.7535 18.9515C32.8825 19.0805 33.0575 19.153 33.24 19.153Z" fill="white" stroke="white" stroke-width="1.7" stroke-miterlimit="10" stroke-linejoin="round"></path>
        <path d="M21.96 19.497C22.5299 19.497 22.992 19.035 22.992 18.465C22.992 17.8951 22.5299 17.433 21.96 17.433C21.39 17.433 20.928 17.8951 20.928 18.465C20.928 19.035 21.39 19.497 21.96 19.497Z" fill="white"></path>
        <path d="M21.96 19.153C22.1424 19.153 22.3174 19.0805 22.4465 18.9515C22.5755 18.8225 22.648 18.6475 22.648 18.465C22.648 18.2825 22.5755 18.1075 22.4465 17.9785C22.3174 17.8495 22.1424 17.777 21.96 17.777C21.7775 17.777 21.6025 17.8495 21.4735 17.9785C21.3445 18.1075 21.272 18.2825 21.272 18.465C21.272 18.6475 21.3445 18.8225 21.4735 18.9515C21.6025 19.0805 21.7775 19.153 21.96 19.153Z" fill="white" stroke="white" stroke-width="1.7" stroke-miterlimit="10" stroke-linejoin="round"></path>
        <path d="M10.424 19.498C10.9939 19.498 11.456 19.0359 11.456 18.466C11.456 17.896 10.9939 17.434 10.424 17.434C9.85401 17.434 9.39197 17.896 9.39197 18.466C9.39197 19.0359 9.85401 19.498 10.424 19.498Z" fill="white"></path>
        <path d="M10.423 19.154C10.6056 19.154 10.7807 19.0815 10.9098 18.9524C11.039 18.8232 11.1115 18.6481 11.1115 18.4655C11.1115 18.2829 11.039 18.1078 10.9098 17.9787C10.7807 17.8495 10.6056 17.777 10.423 17.777C10.2404 17.777 10.0653 17.8495 9.93615 17.9787C9.80704 18.1078 9.7345 18.2829 9.7345 18.4655C9.7345 18.6481 9.80704 18.8232 9.93615 18.9524C10.0653 19.0815 10.2404 19.154 10.423 19.154Z" fill="white" stroke="white" stroke-width="1.7" stroke-miterlimit="10" stroke-linejoin="round"></path>
        <path d="M27.6 11.821C28.17 11.821 28.632 11.3589 28.632 10.789C28.632 10.219 28.17 9.75699 27.6 9.75699C27.03 9.75699 26.568 10.219 26.568 10.789C26.568 11.3589 27.03 11.821 27.6 11.821Z" fill="white"></path>
        <path d="M27.6 11.477C27.7826 11.477 27.9577 11.4045 28.0868 11.2753C28.216 11.1462 28.2885 10.9711 28.2885 10.7885C28.2885 10.6059 28.216 10.4308 28.0868 10.3017C27.9577 10.1725 27.7826 10.1 27.6 10.1C27.4174 10.1 27.2423 10.1725 27.1132 10.3017C26.984 10.4308 26.9115 10.6059 26.9115 10.7885C26.9115 10.9711 26.984 11.1462 27.1132 11.2753C27.2423 11.4045 27.4174 11.477 27.6 11.477Z" fill="white" stroke="white" stroke-width="1.7" stroke-miterlimit="10" stroke-linejoin="round"></path>
        <path d="M16.268 11.821C16.8379 11.821 17.3 11.3589 17.3 10.789C17.3 10.219 16.8379 9.75699 16.268 9.75699C15.698 9.75699 15.236 10.219 15.236 10.789C15.236 11.3589 15.698 11.821 16.268 11.821Z" fill="white"></path>
        <path d="M16.267 11.477C16.4494 11.477 16.6244 11.4045 16.7535 11.2755C16.8825 11.1465 16.955 10.9715 16.955 10.789C16.955 10.6065 16.8825 10.4315 16.7535 10.3025C16.6244 10.1735 16.4494 10.101 16.267 10.101C16.0845 10.101 15.9095 10.1735 15.7805 10.3025C15.6515 10.4315 15.579 10.6065 15.579 10.789C15.579 10.9715 15.6515 11.1465 15.7805 11.2755C15.9095 11.4045 16.0845 11.477 16.267 11.477Z" fill="white" stroke="white" stroke-width="1.7" stroke-miterlimit="10" stroke-linejoin="round"></path>
    </symbol>
    <symbol fill="none" xmlns="http://www.w3.org/2000/svg" viewBox="0 0 56 56" id="SVG">
        <mask id="mask0_101_206" maskUnits="userSpaceOnUse" x="0" y="0" width="56" height="56">
            <path d="M0 0H56V56H0V0Z" fill="white"></path>
        </mask>
        <g mask="url(#mask0_101_206)">
            <path d="M28 54.035C42.82 54.035 54.833 42.267 54.833 27.75C54.833 13.232 42.82 1.463 28 1.463C13.18 1.463 1.16699 13.231 1.16699 27.749C1.16699 42.267 13.18 54.035 28 54.035Z" stroke="white" stroke-width="2" stroke-miterlimit="10" stroke-linecap="round" stroke-linejoin="round"></path>
            <path d="M30.377 15.595C30.304 15.666 30.267 15.702 30.267 15.738C29.827 16.273 29.352 16.808 28.987 17.415C28.803 17.736 28.73 18.093 28.877 18.45C29.023 18.77 29.242 19.056 29.645 19.092C30.011 19.128 30.45 18.878 30.596 18.557C30.706 18.343 30.743 18.093 30.706 17.843C30.669 17.593 30.633 17.379 30.596 17.129C30.523 16.737 30.486 16.344 30.413 15.952C30.45 15.88 30.413 15.738 30.377 15.595ZM25.583 14.703C25.51 14.596 25.473 14.525 25.4 14.418C25.363 14.382 25.363 14.346 25.327 14.311C24.485 13.418 23.424 13.169 22.253 13.49C21.485 13.704 21.046 14.239 20.973 15.024C20.973 15.203 20.936 15.345 20.973 15.524C21.009 16.451 21.412 17.236 22.033 17.95C22.619 18.628 23.314 19.199 24.046 19.734C24.558 20.091 25.107 20.412 25.693 20.626C26.023 20.733 26.388 20.805 26.754 20.733C27.194 20.662 27.413 20.413 27.376 19.984C27.376 19.77 27.303 19.556 27.23 19.342C27.083 18.949 26.9 18.557 26.754 18.129L25.985 15.559C25.875 15.274 25.765 14.953 25.583 14.703ZM36.085 16.487C35.975 16.166 35.902 15.987 35.719 15.702C35.426 15.345 35.17 14.988 34.878 14.632C34.548 14.239 34.218 13.882 33.963 13.418C33.7381 13.0298 33.6725 12.5695 33.78 12.134C33.926 11.456 34.292 10.921 34.768 10.457C34.824 10.4134 34.8855 10.3774 34.951 10.35C35.244 10.171 35.5 10.207 35.719 10.528C35.792 10.671 35.866 10.849 35.939 10.992C36.451 12.348 36.817 13.739 37.146 15.167C37.183 15.345 37.22 15.488 37.329 15.667C37.329 15.595 37.366 15.524 37.366 15.452C37.439 14.702 37.329 13.954 37.183 13.204C37 12.384 36.817 11.599 36.634 10.778C36.597 10.564 36.561 10.385 36.561 10.171C36.561 9.52899 36.963 9.13699 37.622 9.13699C37.878 9.13699 38.134 9.17199 38.391 9.27899C39.451 9.77899 40.403 10.457 41.098 11.384C41.611 12.062 41.574 12.669 40.952 13.24C40.622 13.561 40.257 13.81 39.927 14.132C39.745 14.275 39.598 14.453 39.415 14.632C39.3414 14.6981 39.2859 14.782 39.2539 14.8757C39.2218 14.9693 39.2143 15.0696 39.232 15.167C39.232 15.203 39.232 15.238 39.269 15.31C39.489 15.095 39.708 14.917 39.927 14.739C40.293 14.418 40.623 14.096 40.989 13.811C41.355 13.525 41.721 13.276 42.159 13.133C42.2392 13.0928 42.3265 13.0687 42.416 13.062C43.001 12.919 43.44 13.169 43.66 13.704C43.843 14.132 43.88 14.56 43.88 15.024C43.88 15.31 43.733 15.488 43.477 15.559C43.294 15.631 43.111 15.666 42.928 15.702C42.598 15.773 42.306 15.845 41.977 15.916C41.611 16.023 41.355 16.273 41.318 16.701L41.758 16.487C41.867 16.451 41.94 16.416 42.05 16.38C42.38 16.309 42.635 16.416 42.818 16.666C42.928 16.844 43.038 17.022 43.074 17.236C43.257 17.879 43.184 18.556 42.964 19.199C42.782 19.699 42.379 19.913 41.904 19.984C41.83 19.984 41.757 19.984 41.684 19.948C40.989 19.806 40.33 19.556 39.781 19.092C39.745 19.056 39.708 19.056 39.708 19.02H39.671V19.413C39.708 19.913 39.781 20.413 39.818 20.912C39.854 21.554 39.891 22.232 39.928 22.874C39.928 23.231 39.818 23.552 39.635 23.874C39.452 24.194 39.195 24.48 38.94 24.73C38.683 24.98 38.464 25.265 38.354 25.622C38.134 26.264 38.354 26.835 38.83 27.263C38.94 27.37 39.122 27.406 39.269 27.442C39.525 27.477 39.818 27.513 40.074 27.513C40.2405 27.5346 40.4094 27.5008 40.5549 27.417C40.7003 27.3332 40.8142 27.2039 40.879 27.049C40.989 26.871 41.025 26.692 41.062 26.479C41.098 26.05 41.098 25.622 41.172 25.194C41.245 24.623 41.428 24.087 41.867 23.694C42.087 23.481 42.379 23.374 42.672 23.338C42.892 23.302 43.111 23.302 43.331 23.302C43.477 23.302 43.623 23.302 43.77 23.267C44.062 23.231 44.245 23.017 44.172 22.732C44.1401 22.5838 44.0911 22.4399 44.026 22.303C43.879 22.053 43.733 21.803 43.586 21.59C43.5435 21.4971 43.5071 21.4016 43.477 21.304C43.4345 21.1286 43.4101 20.9493 43.404 20.769C43.404 20.269 43.66 19.949 44.099 19.734C44.721 19.484 45.379 19.234 46.039 19.02C46.3838 18.9215 46.6982 18.7374 46.953 18.485C47.063 18.378 47.173 18.307 47.283 18.235C47.466 18.128 47.648 18.2 47.758 18.378C47.831 18.521 47.831 18.664 47.868 18.806C47.905 18.949 47.905 19.092 47.905 19.235C47.979 19.8313 47.9417 20.4363 47.795 21.019C47.465 22.41 47.173 23.838 47.026 25.301C46.9591 25.9436 46.9841 26.5924 47.1 27.228C47.2759 28.2599 47.4342 29.2947 47.575 30.332C47.6541 30.9352 47.6785 31.5444 47.648 32.152C47.648 32.294 47.648 32.402 47.612 32.544C47.539 32.794 47.356 32.901 47.1 32.865C46.8169 32.8031 46.5607 32.6533 46.368 32.437C46.038 32.08 45.818 31.687 45.636 31.26C45.306 30.51 45.16 29.725 44.977 28.94C44.794 28.227 44.647 27.477 44.465 26.728C44.4331 26.5957 44.3964 26.4646 44.355 26.335H44.319C44.319 26.407 44.282 26.478 44.282 26.585C44.099 28.619 43.842 30.689 43.44 32.723C43.257 33.615 43.074 34.543 42.891 35.435C42.781 35.97 42.635 36.505 42.489 37.075C42.452 37.183 42.452 37.255 42.452 37.361C42.452 37.54 42.562 37.611 42.745 37.611C43.111 37.54 43.477 37.504 43.843 37.433C44.245 37.361 44.611 37.326 45.013 37.397C45.343 37.433 45.599 37.575 45.819 37.825C46.002 38.039 46.002 38.289 45.965 38.539C45.892 38.896 45.672 39.181 45.453 39.467C45.013 39.967 44.538 40.394 44.063 40.858C43.696 41.215 43.293 41.465 42.855 41.715C42.379 41.965 41.867 42.25 41.391 42.464C40.989 42.642 40.55 42.821 40.147 42.999C39.854 43.106 39.598 43.249 39.305 43.392C38.903 43.606 38.5 43.82 38.098 44.07C37.403 44.498 36.744 44.962 36.122 45.461L34.695 46.639C34.512 46.817 34.329 46.996 34.145 47.139C34.0725 47.2093 33.9867 47.2644 33.8926 47.301C33.7984 47.3376 33.6979 47.3549 33.597 47.352C33.414 47.352 33.304 47.245 33.231 47.102C33.158 46.96 33.121 46.782 33.231 46.639L33.451 46.318C33.67 46.103 33.743 45.889 33.707 45.604C33.707 45.176 33.633 44.784 33.56 44.355C33.487 43.855 33.414 43.32 33.45 42.821C33.4771 42.4386 33.6032 42.0699 33.816 41.751C33.999 41.465 34.292 41.322 34.585 41.215C35.207 40.965 35.829 40.787 36.488 40.645C37.256 40.465 38.025 40.287 38.83 40.109C38.976 40.073 39.159 40.037 39.305 40.002C39.415 39.966 39.525 39.93 39.598 39.788C39.525 39.788 39.488 39.752 39.452 39.752H38.647C38.171 39.752 37.695 39.752 37.293 39.538C37.146 39.467 37 39.324 37 39.11C37 38.967 37.037 38.789 37.11 38.646C37.183 38.503 37.22 38.396 37.256 38.289L37.696 37.004C37.732 36.934 37.732 36.862 37.732 36.79C37.769 36.505 37.695 36.434 37.439 36.434H37.109C35.573 36.469 34.036 36.469 32.499 36.255C31.3114 36.0846 30.1459 35.7855 29.023 35.363C28.876 35.292 28.693 35.22 28.547 35.149C26.5054 33.9793 24.4684 32.8016 22.436 31.616C19.765 30.046 17.13 28.405 14.459 26.835C14.239 26.728 14.056 26.585 13.837 26.478C13.654 26.407 13.507 26.3 13.324 26.264C13.068 26.193 12.849 26.3 12.739 26.55C12.702 26.657 12.629 26.764 12.629 26.906C12.592 27.156 12.556 27.37 12.556 27.62C12.629 28.94 12.812 30.225 13.215 31.51C13.471 32.33 13.837 33.08 14.349 33.757C14.679 34.221 15.081 34.649 15.593 34.935C16.618 35.542 17.643 36.077 18.777 36.434C18.96 36.505 19.143 36.541 19.362 36.541C19.582 36.576 19.655 36.469 19.618 36.255C19.618 36.148 19.582 36.005 19.545 35.898C19.472 35.648 19.362 35.363 19.289 35.113C19.179 34.685 19.252 34.293 19.582 33.971C19.728 33.829 19.912 33.757 20.131 33.721C20.57 33.651 21.009 33.686 21.411 33.864C21.997 34.114 22.546 34.364 23.058 34.757C23.461 35.077 23.79 35.435 24.009 35.898C24.046 36.005 24.083 36.112 24.083 36.219C24.0855 36.3134 24.067 36.4072 24.029 36.4936C23.991 36.5801 23.9343 36.657 23.863 36.719C23.6853 36.8577 23.4664 36.9331 23.241 36.933C23.021 36.933 22.802 36.969 22.582 36.969C22.509 36.969 22.436 37.004 22.436 37.076C22.399 37.147 22.473 37.219 22.546 37.29C22.6029 37.3232 22.6646 37.3471 22.729 37.361H23.278C23.717 37.326 24.156 37.183 24.558 37.041C24.924 36.897 25.29 36.791 25.62 36.683C25.876 36.612 26.132 36.576 26.425 36.648C27.23 36.79 27.962 37.111 28.547 37.682C28.767 37.932 28.949 38.182 29.096 38.503C29.206 38.753 29.206 39.003 29.096 39.288C28.986 39.609 28.73 39.752 28.401 39.716C27.888 39.681 27.339 39.609 26.827 39.574C26.571 39.538 26.278 39.574 26.022 39.574C25.766 39.574 25.546 39.681 25.327 39.752C25.437 39.859 25.693 39.966 25.912 39.966H27.815C28.73 39.966 29.462 40.359 30.047 41.001C30.852 41.929 31.291 42.999 31.474 44.212C31.511 44.569 31.511 44.89 31.438 45.247C31.401 45.39 31.365 45.568 31.255 45.675C31.035 46.068 30.633 46.211 30.194 46.068C29.938 45.996 29.718 45.854 29.499 45.711C28.986 45.39 28.51 44.997 28.071 44.605C27.2257 43.8109 26.372 43.0258 25.51 42.25C25.254 42 24.96 41.786 24.668 41.536C24.6251 41.4916 24.5739 41.4561 24.5172 41.4316C24.4606 41.4071 24.3997 41.3939 24.338 41.393L24.448 41.715C24.705 42.392 24.705 42.392 25.254 42.892C26.314 43.855 27.413 44.819 28.474 45.782C28.767 46.068 29.059 46.389 29.206 46.782C29.462 47.388 29.169 48.03 28.547 48.28C27.779 48.601 27.01 48.637 26.242 48.28C25.692 48.03 25.29 47.602 24.998 47.103C24.412 46.103 24.009 44.997 23.644 43.891C23.388 43.178 23.168 42.5 22.912 41.786C22.8853 41.6914 22.8347 41.6053 22.765 41.536C22.436 41.179 22.363 41.144 22.253 41.144C22.18 41.215 22.18 41.286 22.216 41.358C22.253 41.5 22.29 41.608 22.326 41.75C22.436 42.25 22.582 42.75 22.692 43.285C22.765 43.605 22.765 43.927 22.729 44.284C22.692 44.569 22.546 44.854 22.289 45.033C22.0734 45.1785 21.818 45.2533 21.558 45.247C20.899 45.283 20.314 45.14 19.765 44.783C19.1357 44.3913 18.6385 43.8196 18.338 43.142C18.081 42.571 18.118 42.036 18.411 41.5C18.631 41.108 18.923 40.787 19.252 40.501C19.326 40.43 19.435 40.359 19.509 40.287L19.655 40.145C19.911 39.859 19.838 39.574 19.472 39.467C19.326 39.395 19.179 39.395 19.032 39.359C18.594 39.289 18.155 39.289 17.716 39.181C16.252 38.931 14.934 38.396 13.654 37.647C12.9167 37.222 12.2187 36.7324 11.568 36.184C11.3204 35.9734 11.0991 35.7336 10.909 35.47C9.81098 34.15 9.15298 32.615 8.74998 30.974C8.27498 28.976 8.05498 26.871 8.20098 24.73C8.27498 23.517 8.49398 22.339 8.82298 21.197C8.96998 20.697 9.15298 20.198 9.44598 19.734C9.58437 19.5282 9.74354 19.3372 9.92098 19.164C10.324 18.842 10.763 18.735 11.275 18.878C11.605 18.949 11.861 19.092 12.153 19.27C12.446 19.449 12.703 19.663 12.959 19.877C14.935 21.661 17.02 23.338 19.289 24.801C20.972 25.871 22.729 26.835 24.669 27.513C24.888 27.584 25.107 27.656 25.29 27.727C25.546 27.799 25.766 27.905 25.985 27.977C26.095 28.012 26.242 28.084 26.388 28.084C26.571 28.12 26.681 28.012 26.644 27.834C26.608 27.513 26.571 27.227 26.278 27.014C25.8672 26.6872 25.4262 26.4002 24.961 26.157C23.79 25.622 22.765 24.872 21.777 24.087C20.68 23.231 19.655 22.303 18.777 21.268C17.972 20.341 17.203 19.342 16.617 18.235C16.3249 17.7301 16.0683 17.2055 15.849 16.665C15.374 15.417 15.154 14.132 15.447 12.812C15.667 11.884 16.179 11.099 16.91 10.492C17.642 9.88599 18.484 9.45799 19.435 9.17199C20.753 8.77999 22.07 8.45899 23.461 8.35199C24.741 8.24399 26.022 8.35199 27.266 8.70799C28.0928 8.95361 28.8811 9.31377 29.608 9.77799C30.889 10.635 31.621 11.813 31.878 13.311C32.17 15.238 32.316 17.201 32.28 19.163C32.238 20.6095 32.1034 22.0517 31.877 23.481C31.84 23.624 31.84 23.766 31.84 23.945C31.877 24.265 32.06 24.409 32.39 24.302C32.8884 24.1589 33.3673 23.955 33.816 23.695L35.573 22.732C35.939 22.517 36.231 22.268 36.488 21.911C36.671 21.625 36.78 21.34 36.78 20.983C36.7497 20.3038 36.701 19.6255 36.634 18.949C36.634 18.878 36.634 18.842 36.597 18.771C36.561 18.628 36.524 18.592 36.377 18.592C36.268 18.592 36.122 18.628 36.012 18.628C35.682 18.664 35.353 18.699 34.987 18.699H34.512C34.146 18.699 33.89 18.557 33.67 18.235C33.377 17.772 33.085 17.308 32.975 16.773C32.865 16.273 32.865 15.809 33.085 15.31C33.305 14.774 33.67 14.596 34.219 14.846C34.7611 15.0555 35.2489 15.3847 35.646 15.809C35.719 16.059 35.901 16.273 36.085 16.487Z" fill="white"></path>
        </g>
    </symbol>
    <symbol fill="none" xmlns="http://www.w3.org/2000/svg" viewBox="0 0 56 56" id="SVG-1">
        <mask id="mask0_101_153" maskUnits="userSpaceOnUse" x="0" y="0" width="56" height="56">
            <path d="M0 0H56V56H0V0Z" fill="white"></path>
        </mask>
        <g mask="url(#mask0_101_153)">
            <path d="M28 54.835C42.82 54.835 54.835 42.821 54.835 28C54.835 13.18 42.821 1.16499 28 1.16499C13.18 1.16499 1.16504 13.18 1.16504 28C1.16504 42.82 13.179 54.835 28 54.835Z" stroke="white" stroke-width="1.7" stroke-miterlimit="10" stroke-linecap="round" stroke-linejoin="round"></path>
            <path d="M4.06299 16.617C10.689 19.521 16.915 4.83199 27.999 15.515V41.605C19.359 33.632 14.864 43.974 7.11699 44.033M51.935 16.619C45.308 19.523 39.082 4.83399 27.999 15.517V41.607C36.694 33.584 41.189 44.107 49.027 44.035" stroke="white" stroke-width="1.7" stroke-miterlimit="10" stroke-linecap="round" stroke-linejoin="round"></path>
            <path d="M23.275 17.552C17.433 15.332 13.11 20.139 8.78601 21.842M23.275 22.843C17.549 20.84 13.327 25.831 8.78601 27.366M23.275 28.151C17.666 26.365 13.56 31.506 8.78601 32.891M23.275 33.475C17.833 31.923 13.844 37.165 8.82001 38.383M32.722 17.552C38.564 15.332 42.888 20.139 47.211 21.842M32.722 22.843C38.447 20.84 42.67 25.831 47.211 27.366M32.722 28.151C38.331 26.365 42.437 31.506 47.211 32.891M32.722 33.475C38.164 31.923 42.153 37.165 47.177 38.383" stroke="white" stroke-width="1.7" stroke-miterlimit="10" stroke-linecap="round" stroke-linejoin="round"></path>
        </g>
    </symbol>
    <symbol fill="none" xmlns="http://www.w3.org/2000/svg" viewBox="0 0 56 56" id="SVG-2">
        <mask id="mask0_101_189" maskUnits="userSpaceOnUse" x="0" y="0" width="56" height="56">
            <path d="M0 0H56V56H0V0Z" fill="white"></path>
        </mask>
        <g mask="url(#mask0_101_189)">
            <path d="M28 54.035C42.82 54.035 54.833 42.267 54.833 27.75C54.833 13.232 42.82 1.463 28 1.463C13.18 1.463 1.16699 13.231 1.16699 27.749C1.16699 42.267 13.18 54.035 28 54.035Z" fill="url(#paint0_radial_101_189)" stroke="white" stroke-width="2" stroke-miterlimit="10" stroke-linecap="round" stroke-linejoin="round"></path>
            <path d="M43.019 27.063C43.119 26.083 43.119 25.102 43.119 24.219C43.119 13.626 36.31 7.44699 27.999 7.44699C19.689 7.44699 12.881 13.724 12.881 24.219C12.881 25.199 12.981 26.082 13.081 27.063H12.981C10.678 27.063 11.88 29.81 12.981 32.261C13.782 34.125 14.683 35.891 15.885 35.891C19.089 42.56 24.195 47.954 28 47.954C31.805 47.954 37.011 42.56 40.115 35.891C41.216 35.891 42.218 34.027 43.019 32.261C44.019 29.908 45.422 27.063 43.019 27.063Z" fill="black"></path>
        </g>
        <defs>
            <radialGradient id="paint0_radial_101_189" cx="0" cy="0" r="1" gradientUnits="userSpaceOnUse" gradientTransform="translate(28.023 27.775) scale(26.7903 26.2435)">
                <stop stop-color="white"></stop>
                <stop offset="0.111" stop-color="#F7F7F7"></stop>
                <stop offset="0.286" stop-color="#E0E0E0"></stop>
                <stop offset="0.503" stop-color="#BCBCBC"></stop>
                <stop offset="0.751" stop-color="#898989"></stop>
                <stop offset="1" stop-color="#4F4F4F"></stop>
            </radialGradient>
        </defs>
    </symbol>
    <symbol fill="none" xmlns="http://www.w3.org/2000/svg" viewBox="0 0 56 56" id="SVG-3">
        <mask id="mask0_101_171" maskUnits="userSpaceOnUse" x="0" y="0" width="56" height="56">
            <path d="M0 0H56V56H0V0Z" fill="white"></path>
        </mask>
        <g mask="url(#mask0_101_171)">
            <path d="M28 54.833C42.82 54.833 54.833 42.819 54.833 28C54.833 13.18 42.82 1.16701 28 1.16701C13.18 1.16701 1.16699 13.18 1.16699 28C1.16699 42.82 13.18 54.833 28 54.833Z" stroke="white" stroke-width="1.7" stroke-miterlimit="10" stroke-linecap="round" stroke-linejoin="round"></path>
            <path d="M28 1.26701C35.41 1.26701 41.417 7.17401 41.417 14.583C41.417 21.993 35.409 28 28 28C20.59 28 14.584 34.007 14.584 41.416C14.584 48.826 20.591 54.833 28 54.833" stroke="white" stroke-width="1.7" stroke-miterlimit="10" stroke-linecap="round" stroke-linejoin="round"></path>
            <path d="M27.9999 19.69C28.6705 19.69 29.3346 19.5579 29.9541 19.3013C30.5737 19.0447 31.1366 18.6685 31.6108 18.1943C32.085 17.7202 32.4611 17.1572 32.7177 16.5377C32.9744 15.9181 33.1064 15.2541 33.1064 14.5835C33.1064 13.9129 32.9744 13.2489 32.7177 12.6293C32.4611 12.0098 32.085 11.4468 31.6108 10.9727C31.1366 10.4985 30.5737 10.1223 29.9541 9.86571C29.3346 9.60909 28.6705 9.477 27.9999 9.47701C26.6457 9.47701 25.347 10.015 24.3894 10.9725C23.4319 11.9301 22.8939 13.2288 22.8939 14.583C22.8939 15.9372 23.4319 17.2359 24.3894 18.1935C25.347 19.1511 26.6457 19.689 27.9999 19.689V19.69ZM27.9999 46.523C29.3543 46.523 30.6531 45.985 31.6108 45.0273C32.5684 44.0697 33.1064 42.7708 33.1064 41.4165C33.1064 40.0622 32.5684 38.7633 31.6108 37.8057C30.6531 36.848 29.3543 36.31 27.9999 36.31C26.6456 36.31 25.3467 36.848 24.3891 37.8057C23.4314 38.7633 22.8934 40.0622 22.8934 41.4165C22.8934 42.7708 23.4314 44.0697 24.3891 45.0273C25.3467 45.985 26.6456 46.523 27.9999 46.523Z" stroke="white" stroke-width="1.7" stroke-miterlimit="10" stroke-linecap="round" stroke-linejoin="round"></path>
        </g>
    </symbol>
    <symbol fill="none" xmlns="http://www.w3.org/2000/svg" viewBox="0 0 56 56" id="SVG-4">
        <mask id="mask0_101_135" maskUnits="userSpaceOnUse" x="0" y="0" width="56" height="56">
            <path d="M0 0H56V56H0V0Z" fill="white"></path>
        </mask>
        <g mask="url(#mask0_101_135)">
            <path d="M28 54.833C42.82 54.833 54.833 42.819 54.833 28C54.833 13.18 42.82 1.16701 28 1.16701C13.18 1.16701 1.16699 13.18 1.16699 28C1.16699 42.82 13.18 54.833 28 54.833Z" stroke="white" stroke-width="1.7" stroke-miterlimit="10" stroke-linecap="round" stroke-linejoin="round"></path>
            <path d="M27.896 47.244V8.679M41.533 15.957C35.95 19.511 31.383 23.912 28 28.651C32.8283 25.9766 38.1011 24.1989 43.563 23.404" stroke="white" stroke-width="1.7" stroke-miterlimit="10" stroke-linecap="round"></path>
            <path d="M28 28.652C29.86 22.559 32.567 16.465 35.95 10.711M28 28.651C26.139 22.558 23.432 16.634 19.88 10.879M28 28.651C23.1717 25.9766 17.8989 24.1989 12.437 23.404M28 28.651C24.617 23.912 20.05 19.511 14.467 15.957" stroke="white" stroke-width="1.7" stroke-miterlimit="10" stroke-linecap="round"></path>
        </g>
    </symbol>
    <symbol fill="none" xmlns="http://www.w3.org/2000/svg" viewBox="0 0 56 56" id="SVG-5">
        <path d="M28 53.5C42.083 53.5 53.5 42.083 53.5 28C53.5 13.917 42.083 2.5 28 2.5C13.917 2.5 2.5 13.917 2.5 28C2.5 42.083 13.917 53.5 28 53.5Z" stroke="white" stroke-width="2" stroke-miterlimit="10"></path>
        <path d="M33.664 8.657L28 14.32L22.364 8.657" stroke="white" stroke-width="2" stroke-miterlimit="10" stroke-linecap="round" stroke-linejoin="round"></path>
        <path d="M31.912 16.975L27.999 20.86L24.114 16.975" stroke="#787878" stroke-width="2" stroke-miterlimit="10" stroke-linecap="round" stroke-linejoin="round"></path>
        <path d="M33.664 22.5L28 28.138L22.364 22.5M22.364 47.373L28 41.709L33.664 47.373" stroke="white" stroke-width="2" stroke-miterlimit="10" stroke-linecap="round" stroke-linejoin="round"></path>
        <path d="M24.114 39.053L28 35.168L31.913 39.053" stroke="#787878" stroke-width="2" stroke-miterlimit="10" stroke-linecap="round" stroke-linejoin="round"></path>
        <path d="M22.364 33.528L28 27.89L33.664 33.527M8.65503 22.363L14.292 28.027L8.65503 33.663" stroke="white" stroke-width="2" stroke-miterlimit="10" stroke-linecap="round" stroke-linejoin="round"></path>
        <path d="M16.946 24.116L20.859 28.001L16.946 31.914" stroke="#787878" stroke-width="2" stroke-miterlimit="10" stroke-linecap="round" stroke-linejoin="round"></path>
        <path d="M47.37 33.663L41.707 27.999L47.371 22.363" stroke="white" stroke-width="2" stroke-miterlimit="10" stroke-linecap="round" stroke-linejoin="round"></path>
        <path d="M39.053 31.914L35.168 28.029L39.053 24.116M18.944 10.518V18.945H10.517M37.056 45.51V37.083H45.511M10.517 37.083H18.944V45.51M45.51 18.945H37.057V10.518" stroke="#787878" stroke-width="2" stroke-miterlimit="10" stroke-linecap="round" stroke-linejoin="round"></path>
        <path d="M37.056 18.944L42.419 13.608M13.58 42.419L18.943 37.083M37.056 37.083L42.419 42.419M13.58 13.608L18.943 18.944M43.568 28H48.383M7.61499 28H12.458M28 12.46V7.619M28 48.412V43.569" stroke="white" stroke-width="2" stroke-miterlimit="10" stroke-linecap="round" stroke-linejoin="round"></path>
    </symbol>
    <symbol fill="none" xmlns="http://www.w3.org/2000/svg" viewBox="0 0 56 56" id="SVG-6">
        <mask id="mask0_101_65" maskUnits="userSpaceOnUse" x="0" y="0" width="56" height="56">
            <path d="M0 0H56V56H0V0Z" fill="white"></path>
        </mask>
        <g mask="url(#mask0_101_65)">
            <path d="M20.257 15.489L28.228 1.682M9.64597 33.761L16.02 22.721M28.509 54.6L39.569 35.443M43.745 28.185L51.135 15.385M2.14297 33.247L13.307 13.91M43.274 42.405L54.106 23.643M20.103 29.028L31.163 9.87M9.66797 47.052L15.898 36.261M28.573 41.112L46.568 9.944M29.337 26.395L41.524 5.285M18.76 44.644L25.134 33.604M4.94397 41.397C12.343 54.131 28.664 58.455 41.397 51.057C54.131 43.657 58.455 27.337 51.057 14.603C43.657 1.869 27.337 -2.455 14.603 4.943C1.86897 12.343 -2.45403 28.663 4.94397 41.397Z" stroke="white" stroke-width="1.7" stroke-miterlimit="10" stroke-linecap="round" stroke-linejoin="round"></path>
        </g>
    </symbol>
    <symbol fill="none" xmlns="http://www.w3.org/2000/svg" viewBox="0 0 56 56" id="SVG-7">
        <mask id="mask0_101_48" maskUnits="userSpaceOnUse" x="0" y="0" width="56" height="56">
            <path d="M0 0H56V56H0V0Z" fill="white"></path>
        </mask>
        <g mask="url(#mask0_101_48)">
            <path d="M4.73197 41.52C12.2 54.37 28.67 58.735 41.52 51.268C54.37 43.8 58.735 27.33 51.268 14.48C43.8 1.63 27.33 -2.735 14.48 4.732C1.62997 12.2 -2.73503 28.67 4.73197 41.52Z" stroke="white" stroke-width="1.7" stroke-miterlimit="10" stroke-linecap="round" stroke-linejoin="round"></path>
            <path d="M16.265 28.059C16.265 24.088 18.191 20.566 21.159 18.377C20.4213 17.4884 19.4683 16.8035 18.3907 16.3876C17.3132 15.9718 16.1472 15.8389 15.0037 16.0016C13.8603 16.1643 12.7775 16.6172 11.8588 17.317C10.94 18.0169 10.2158 18.9404 9.75518 19.9996C9.29459 21.0587 9.11296 22.2182 9.22762 23.3674C9.34227 24.5167 9.74938 25.6174 10.4101 26.5647C11.0709 27.512 11.9633 28.2743 13.0022 28.7788C14.0411 29.2834 15.192 29.5134 16.345 29.447C16.292 28.992 16.265 28.529 16.265 28.059ZM16.265 28.059C16.265 34.699 21.648 40.08 28.287 40.08C30.909 40.08 33.335 39.24 35.311 37.816C34.1961 36.5764 33.5804 34.9673 33.583 33.3M16.265 28.059C16.265 21.419 21.648 16.038 28.287 16.038C34.412 16.038 39.467 20.618 40.214 26.54C38.4436 26.5743 36.7573 27.3017 35.5174 28.5659C34.2775 29.8301 33.583 31.5293 33.583 33.3M33.583 33.3C33.583 35.0934 34.2955 36.8143 35.5636 38.0825C36.8317 39.3506 38.5516 40.063 40.345 40.063C42.1384 40.063 43.8584 39.3506 45.1265 38.0825C46.3946 36.8143 47.107 35.0944 47.107 33.301C47.107 31.5076 46.3946 29.7877 45.1265 28.5195C43.8584 27.2514 42.1384 26.539 40.345 26.539C38.5516 26.539 36.8317 27.2514 35.5636 28.5195C34.2955 29.7877 33.583 31.5066 33.583 33.3Z" stroke="white" stroke-width="1.7" stroke-miterlimit="10"></path>
        </g>
    </symbol>
    <symbol fill="none" xmlns="http://www.w3.org/2000/svg" viewBox="0 0 56 56" id="SVG-8">
        <mask id="mask0_101_32" maskUnits="userSpaceOnUse" x="0" y="0" width="56" height="56">
            <path d="M0 0H56V56H0V0Z" fill="white"></path>
        </mask>
        <g mask="url(#mask0_101_32)">
            <path d="M28 54.835C42.82 54.835 54.835 42.821 54.835 28C54.835 13.18 42.821 1.16499 28 1.16499C13.18 1.16499 1.16504 13.18 1.16504 28C1.16504 42.82 13.179 54.835 28 54.835Z" stroke="white" stroke-width="1.7" stroke-miterlimit="10" stroke-linecap="round" stroke-linejoin="round"></path>
            <path d="M28.148 20.782C28.2756 20.782 28.3979 20.7313 28.4881 20.6411C28.5783 20.5509 28.629 20.4286 28.629 20.301C28.629 20.1734 28.5783 20.0511 28.4881 19.9609C28.3979 19.8707 28.2756 19.82 28.148 19.82C28.0204 19.82 27.8981 19.8707 27.8079 19.9609C27.7177 20.0511 27.667 20.1734 27.667 20.301C27.667 20.4286 27.7177 20.5509 27.8079 20.6411C27.8981 20.7313 28.0204 20.782 28.148 20.782ZM43.915 20.782C44.0426 20.782 44.1649 20.7313 44.2551 20.6411C44.3453 20.5509 44.396 20.4286 44.396 20.301C44.396 20.1734 44.3453 20.0511 44.2551 19.9609C44.1649 19.8707 44.0426 19.82 43.915 19.82C43.7874 19.82 43.6651 19.8707 43.5749 19.9609C43.4847 20.0511 43.434 20.1734 43.434 20.301C43.434 20.4286 43.4847 20.5509 43.5749 20.6411C43.6651 20.7313 43.7874 20.782 43.915 20.782ZM28.148 29.999C28.2756 29.999 28.3979 29.9483 28.4881 29.8581C28.5783 29.7679 28.629 29.6456 28.629 29.518C28.629 29.3904 28.5783 29.2681 28.4881 29.1779C28.3979 29.0877 28.2756 29.037 28.148 29.037C28.0204 29.037 27.8981 29.0877 27.8079 29.1779C27.7177 29.2681 27.667 29.3904 27.667 29.518C27.667 29.6456 27.7177 29.7679 27.8079 29.8581C27.8981 29.9483 28.0204 29.999 28.148 29.999ZM43.915 29.999C44.0426 29.999 44.1649 29.9483 44.2551 29.8581C44.3453 29.7679 44.396 29.6456 44.396 29.518C44.396 29.3904 44.3453 29.2681 44.2551 29.1779C44.1649 29.0877 44.0426 29.037 43.915 29.037C43.7874 29.037 43.6651 29.0877 43.5749 29.1779C43.4847 29.2681 43.434 29.3904 43.434 29.518C43.434 29.6456 43.4847 29.7679 43.5749 29.8581C43.6651 29.9483 43.7874 29.999 43.915 29.999ZM36.032 25.409C36.0952 25.409 36.1577 25.3965 36.2161 25.3724C36.2744 25.3482 36.3274 25.3128 36.3721 25.2681C36.4168 25.2234 36.4522 25.1704 36.4764 25.1121C36.5006 25.0537 36.513 24.9912 36.513 24.928C36.513 24.8648 36.5006 24.8023 36.4764 24.7439C36.4522 24.6856 36.4168 24.6325 36.3721 24.5879C36.3274 24.5432 36.2744 24.5078 36.2161 24.4836C36.1577 24.4594 36.0952 24.447 36.032 24.447C35.9044 24.447 35.7821 24.4977 35.6919 24.5879C35.6017 24.6781 35.551 24.8004 35.551 24.928C35.551 25.0556 35.6017 25.1779 35.6919 25.2681C35.7821 25.3583 35.9044 25.409 36.032 25.409ZM36.032 34.256C36.1597 34.256 36.2822 34.2053 36.3725 34.115C36.4628 34.0247 36.5135 33.9022 36.5135 33.7745C36.5135 33.6468 36.4628 33.5243 36.3725 33.434C36.2822 33.3437 36.1597 33.293 36.032 33.293C35.9043 33.293 35.7818 33.3437 35.6915 33.434C35.6012 33.5243 35.5505 33.6468 35.5505 33.7745C35.5505 33.9022 35.6012 34.0247 35.6915 34.115C35.7818 34.2053 35.9043 34.256 36.032 34.256ZM36.032 16.563C36.1596 16.563 36.2819 16.5123 36.3721 16.4221C36.4623 16.3319 36.513 16.2096 36.513 16.082C36.513 15.9544 36.4623 15.8321 36.3721 15.7419C36.2819 15.6517 36.1596 15.601 36.032 15.601C35.9044 15.601 35.7821 15.6517 35.6919 15.7419C35.6017 15.8321 35.551 15.9544 35.551 16.082C35.551 16.2096 35.6017 16.3319 35.6919 16.4221C35.7821 16.5123 35.9044 16.563 36.032 16.563Z" fill="white" stroke="white" stroke-width="1.7" stroke-miterlimit="10" stroke-linejoin="round"></path>
            <path d="M35.773 43.287C25.631 43.287 17.414 35.07 17.414 24.928C17.414 17.748 21.559 11.492 27.593 8.494C17.007 8.716 8.49304 17.34 8.49304 28C8.49304 38.771 17.229 47.506 28 47.506C32.7938 47.5093 37.4201 45.7431 40.992 42.546C39.326 42.991 37.587 43.286 35.772 43.286L35.773 43.287Z" stroke="white" stroke-width="1.7" stroke-miterlimit="10" stroke-linecap="round" stroke-linejoin="round"></path>
            <path d="M36.033 16.958C36.5174 16.958 36.91 16.5653 36.91 16.081C36.91 15.5966 36.5174 15.204 36.033 15.204C35.5487 15.204 35.156 15.5966 35.156 16.081C35.156 16.5653 35.5487 16.958 36.033 16.958Z" fill="white"></path>
            <path d="M43.9161 21.178C44.4004 21.178 44.7931 20.7854 44.7931 20.301C44.7931 19.8166 44.4004 19.424 43.9161 19.424C43.4317 19.424 43.0391 19.8166 43.0391 20.301C43.0391 20.7854 43.4317 21.178 43.9161 21.178Z" fill="white"></path>
            <path d="M43.9161 30.395C44.4004 30.395 44.7931 30.0023 44.7931 29.518C44.7931 29.0336 44.4004 28.641 43.9161 28.641C43.4317 28.641 43.0391 29.0336 43.0391 29.518C43.0391 30.0023 43.4317 30.395 43.9161 30.395Z" fill="white"></path>
            <path d="M36.0321 25.806C36.517 25.806 36.9101 25.4129 36.9101 24.928C36.9101 24.4431 36.517 24.05 36.0321 24.05C35.5471 24.05 35.1541 24.4431 35.1541 24.928C35.1541 25.4129 35.5471 25.806 36.0321 25.806Z" fill="white"></path>
            <path d="M36.033 34.651C36.5174 34.651 36.91 34.2583 36.91 33.774C36.91 33.2896 36.5174 32.897 36.033 32.897C35.5487 32.897 35.156 33.2896 35.156 33.774C35.156 34.2583 35.5487 34.651 36.033 34.651Z" fill="white"></path>
            <path d="M28.148 30.395C28.6324 30.395 29.025 30.0023 29.025 29.518C29.025 29.0336 28.6324 28.641 28.148 28.641C27.6636 28.641 27.271 29.0336 27.271 29.518C27.271 30.0023 27.6636 30.395 28.148 30.395Z" fill="white"></path>
            <path d="M28.148 21.178C28.6324 21.178 29.025 20.7854 29.025 20.301C29.025 19.8166 28.6324 19.424 28.148 19.424C27.6636 19.424 27.271 19.8166 27.271 20.301C27.271 20.7854 27.6636 21.178 28.148 21.178Z" fill="white"></path>
        </g>
    </symbol>
    <symbol fill="none" xmlns="http://www.w3.org/2000/svg" viewBox="0 0 56 56" id="SVG-9">
        <mask id="mask0_101_23" maskUnits="userSpaceOnUse" x="0" y="0" width="56" height="56">
            <path d="M0 0H56V56H0V0Z" fill="white"></path>
        </mask>
        <g mask="url(#mask0_101_23)">
            <path d="M28 54.833C42.82 54.833 54.833 42.819 54.833 28C54.833 13.18 42.82 1.16701 28 1.16701C13.18 1.16701 1.16699 13.18 1.16699 28C1.16699 42.82 13.18 54.833 28 54.833Z" stroke="white" stroke-width="1.7" stroke-miterlimit="10" stroke-linecap="round" stroke-linejoin="round"></path>
            <path d="M54.426 28C41.176 28 41.176 8.49501 27.926 8.49501C14.676 8.49501 14.676 28 1.42603 28M54.426 28C41.176 28 41.176 47.505 27.926 47.505C14.676 47.505 14.676 28 1.42603 28" stroke="white" stroke-width="1.7" stroke-miterlimit="10" stroke-linecap="round" stroke-linejoin="round"></path>
            <path d="M46.395 47.468C28 47.468 28 8.42001 9.56797 8.42001M54.426 28H1.57397" stroke="white" stroke-width="1.7" stroke-miterlimit="10" stroke-linecap="round" stroke-linejoin="round"></path>
        </g>
    </symbol>
    <symbol fill="none" xmlns="http://www.w3.org/2000/svg" viewBox="0 0 56 56" id="SVG-10">
        <mask id="mask0_101_16" maskUnits="userSpaceOnUse" x="0" y="0" width="56" height="56">
            <path d="M0 0H56V56H0V0Z" fill="white"></path>
        </mask>
        <g mask="url(#mask0_101_16)">
            <path d="M46.136 47.283V37.623M46.136 37.623V28M46.136 37.623H52.983M46.136 18.34V8.68001H34.033M46.136 18.34V28M46.136 18.34H52.983M46.136 28H54.39M34.033 37.623V47.283M34.033 37.623V28M34.033 37.623H46.135M34.033 37.623H21.93M34.033 47.283V54.093M34.033 47.283H46.135M34.033 47.283H21.93M34.033 18.34V28M34.033 18.34V8.68001M34.033 18.34H21.93M34.033 18.34H46.135M34.033 28H46.135M34.033 28H21.93M34.033 1.87001V8.68001M34.033 8.68001H21.93M21.93 37.623V47.283M21.93 37.623V28M21.93 37.623H9.82699M21.93 47.283V54.093M21.93 47.283H9.82699V37.623M21.93 28V18.34M21.93 28H9.82699M21.93 18.34V8.68001M21.93 18.34H9.82699M21.93 8.68001V1.87001M21.93 8.68001H9.82699V18.34M9.82699 37.623V28M9.82699 37.623H2.97999M9.82699 18.34V28M9.82699 18.34H2.97999M9.82699 28H1.57399M28 54.833C42.82 54.833 54.833 42.819 54.833 28C54.833 13.18 42.82 1.16701 28 1.16701C13.18 1.16701 1.16699 13.18 1.16699 28C1.16699 42.82 13.18 54.833 28 54.833Z" stroke="white" stroke-width="1.7" stroke-miterlimit="10" stroke-linecap="round" stroke-linejoin="round"></path>
        </g>
    </symbol>
</svg>